<svg id="Human_Resource-List-Resume-Interview-Job" height="512" viewBox="0 0 64 64" width="512" xmlns="http://www.w3.org/2000/svg" data-name="Human Resource-List-Resume-Interview-Job"><path d="m32 2a14 14 0 1 0 14 14 14.015 14.015 0 0 0 -14-14zm7 23.73a11.928 11.928 0 0 1 -14 0v-.26a3.044 3.044 0 0 1 1.66-2.69l.57-.28.86 1.91a.985.985 0 0 0 .63.55.9.9 0 0 0 .28.04.967.967 0 0 0 .55-.17l2.45-1.63 2.45 1.63a.967.967 0 0 0 .55.17.9.9 0 0 0 .28-.04.985.985 0 0 0 .63-.55l.86-1.91.57.28a3.044 3.044 0 0 1 1.66 2.69zm-6.3-13.12a2.968 2.968 0 0 0 2.3 1.36v.03a3 3 0 0 1 -6 0v-.04a6.92 6.92 0 0 0 3.7-1.35zm-3.7-.66v-.95a3 3 0 0 1 6 0v.97a.988.988 0 0 1 -.66-.52l-.45-.9a1 1 0 0 0 -.73-.54 1.011 1.011 0 0 0 -.87.28l-.24.25a4.979 4.979 0 0 1 -3.05 1.41zm5.98 9.66-.41.9-1-.67.63-.62zm-1.98-2.71v.69l-1 1-1-1v-.69a5.05 5.05 0 0 0 2 0zm-2.57 2.94-1 .67-.41-.9.78-.39zm10.38 2.28a5.055 5.055 0 0 0 -2.57-3.12l-3.24-1.62v-1.41a4.952 4.952 0 0 0 2-3.97v-3a5 5 0 0 0 -10 0v3a4.952 4.952 0 0 0 2 3.97v1.41l-3.24 1.62a5.055 5.055 0 0 0 -2.57 3.12 12 12 0 1 1 17.62 0z"/><path d="m49 12h-1v2h1a1 1 0 0 1 1 1v44a1 1 0 0 1 -1 1h-34a1 1 0 0 1 -1-1v-44a1 1 0 0 1 1-1h1v-2h-1a3 3 0 0 0 -3 3v44a3 3 0 0 0 3 3h34a3 3 0 0 0 3-3v-44a3 3 0 0 0 -3-3z"/><path d="m59 16h-5v2h5a1 1 0 0 1 1 1v36a1 1 0 0 1 -1 1h-5v2h5a3 3 0 0 0 3-3v-36a3 3 0 0 0 -3-3z"/><path d="m2 19v36a3 3 0 0 0 3 3h5v-2h-5a1 1 0 0 1 -1-1v-36a1 1 0 0 1 1-1h5v-2h-5a3 3 0 0 0 -3 3z"/><path d="m6 24h4v2h-4z"/><path d="m6 28h4v2h-4z"/><path d="m6 32h4v2h-4z"/><path d="m6 36h4v2h-4z"/><path d="m6 40h4v2h-4z"/><path d="m6 44h4v2h-4z"/><path d="m6 48h4v2h-4z"/><path d="m54 24h4v2h-4z"/><path d="m54 28h4v2h-4z"/><path d="m54 32h4v2h-4z"/><path d="m54 36h4v2h-4z"/><path d="m54 40h4v2h-4z"/><path d="m54 44h4v2h-4z"/><path d="m54 48h4v2h-4z"/><path d="m23 44a5.006 5.006 0 0 0 5-5 4.94 4.94 0 0 0 -.481-2.1l1.188-1.188-1.414-1.414-.986.986a4.991 4.991 0 1 0 -3.307 8.716zm0-8a2.972 2.972 0 0 1 1.894.692l-2.6 2.6 1.414 1.414 2.239-2.239a3 3 0 1 1 -2.947-2.467z"/><path d="m37 36h8v2h-8z"/><path d="m33 40h12v2h-12z"/><path d="m23 56a5.006 5.006 0 0 0 5-5 4.94 4.94 0 0 0 -.481-2.1l1.188-1.188-1.414-1.414-.986.986a4.991 4.991 0 1 0 -3.307 8.716zm0-8a2.972 2.972 0 0 1 1.894.692l-2.6 2.6 1.414 1.414 2.239-2.239a3 3 0 1 1 -2.947-2.467z"/><path d="m33 48h12v2h-12z"/><path d="m33 52h12v2h-12z"/><path d="m33 36h2v2h-2z"/></svg>